<?xml version="1.0" standalone="no"?>
<!DOCTYPE svg PUBLIC "-//W3C//DTD SVG 20010904//EN"
 "http://www.w3.org/TR/2001/REC-SVG-20010904/DTD/svg10.dtd">
<svg version="1.0" xmlns="http://www.w3.org/2000/svg"
 width="512.000000pt" height="512.000000pt" viewBox="0 0 512.000000 512.000000"
 preserveAspectRatio="xMidYMid meet">

<g transform="translate(0.000000,512.000000) scale(0.100000,-0.100000)"
fill="#000000" stroke="none">
<path d="M3480 4229 c-15 -17 -30 -43 -33 -58 -3 -14 -9 -39 -15 -56 -34 -95
-42 -144 -42 -249 0 -61 5 -127 11 -146 5 -19 14 -57 19 -85 10 -58 32 -121
48 -137 7 -7 12 -18 12 -26 0 -40 138 -211 214 -265 80 -56 96 -78 96 -128 0
-26 -6 -60 -14 -76 -8 -15 -20 -48 -27 -72 -14 -46 -47 -91 -68 -91 -6 0 -19
4 -29 10 -9 5 -39 19 -67 31 -27 12 -52 24 -55 28 -7 8 -40 29 -65 40 -11 5
-33 21 -50 35 -16 14 -45 38 -63 53 -19 15 -124 118 -236 228 -218 216 -264
259 -334 313 -25 19 -58 46 -71 59 -14 12 -29 23 -34 23 -17 0 -96 67 -123
105 -25 35 -29 51 -32 121 -3 64 -1 84 12 97 9 8 16 18 16 22 0 8 69 75 110
107 34 26 35 27 15 42 -16 12 -48 15 -152 16 -72 0 -134 -4 -137 -9 -3 -5 -30
-12 -61 -16 -30 -3 -57 -11 -60 -16 -4 -5 -16 -9 -28 -9 -12 0 -35 -7 -51 -15
-15 -8 -36 -15 -45 -15 -9 0 -29 -7 -45 -15 -15 -8 -38 -15 -50 -15 -11 0 -30
-7 -40 -15 -11 -8 -30 -15 -41 -15 -12 0 -36 -7 -54 -16 -34 -17 -115 -13
-126 7 -8 13 -511 12 -535 -1 -11 -6 -47 -13 -82 -16 -35 -4 -68 -10 -73 -15
-6 -4 -30 -11 -53 -15 -23 -4 -42 -10 -42 -15 0 -5 -10 -9 -22 -9 -13 0 -50
-14 -83 -30 -33 -16 -65 -30 -71 -30 -6 0 -17 -7 -24 -15 -7 -8 -20 -15 -30
-15 -10 0 -20 -7 -24 -15 -3 -8 -12 -15 -21 -15 -8 0 -15 -3 -15 -8 0 -4 -17
-16 -37 -27 -48 -26 -293 -269 -293 -291 0 -3 -12 -23 -27 -43 -37 -48 -52
-72 -59 -93 -4 -10 -10 -18 -14 -18 -4 0 -17 -25 -30 -55 -13 -30 -27 -55 -32
-55 -4 0 -8 -8 -8 -18 0 -10 -6 -26 -14 -37 -7 -11 -16 -37 -20 -59 -4 -21
-11 -46 -15 -55 -19 -37 -34 -90 -43 -146 -5 -33 -14 -85 -19 -115 -22 -124
-33 -279 -21 -304 6 -12 16 -68 22 -126 21 -186 42 -300 66 -357 8 -17 14 -44
14 -61 0 -16 7 -35 15 -42 8 -7 15 -18 15 -25 0 -7 7 -26 15 -41 8 -16 15 -37
15 -46 0 -10 4 -18 8 -18 4 0 16 -23 27 -51 11 -28 26 -55 33 -61 6 -6 12 -18
12 -28 0 -10 7 -23 15 -30 8 -7 15 -20 15 -30 0 -10 7 -20 15 -24 8 -3 15 -11
15 -18 0 -7 11 -25 25 -40 14 -15 25 -31 25 -36 0 -5 10 -17 21 -28 12 -10 33
-37 47 -59 37 -58 263 -280 362 -355 47 -35 87 -67 90 -71 3 -3 15 -9 28 -13
12 -4 22 -11 22 -16 0 -4 8 -11 18 -14 9 -3 44 -22 77 -41 104 -59 234 -120
278 -129 15 -4 27 -11 27 -16 0 -6 16 -10 36 -10 20 0 48 -6 62 -14 15 -8 70
-22 122 -31 52 -9 100 -21 106 -26 7 -6 129 -8 295 -6 224 3 300 8 359 21 41
10 95 20 120 23 25 3 54 12 65 19 11 8 32 14 47 14 16 0 36 4 46 9 9 6 49 24
87 41 143 65 182 86 227 123 17 15 37 27 44 27 7 0 14 4 16 9 5 14 111 91 125
91 7 0 32 -9 56 -19 94 -42 295 -65 482 -56 197 11 275 48 275 131 l0 42 -92
46 c-50 25 -96 46 -102 46 -6 1 -29 9 -51 20 -22 11 -48 19 -57 20 -9 0 -20 4
-23 10 -3 5 -15 10 -25 10 -11 0 -38 9 -60 21 -64 34 -50 79 60 189 19 19 56
62 83 95 26 33 53 67 59 75 29 33 68 91 68 99 0 6 6 14 13 18 8 4 17 15 20 23
4 8 16 29 27 45 10 17 29 50 42 75 13 25 26 47 29 50 3 3 9 17 13 33 3 15 11
27 16 27 6 0 10 8 10 18 0 10 7 27 15 38 8 10 15 28 15 39 0 11 7 29 15 39 8
11 15 27 15 37 0 9 7 30 15 45 8 16 15 37 15 47 0 9 4 25 10 35 5 9 14 40 20
67 6 28 18 77 26 110 9 33 19 86 25 118 5 32 14 68 20 79 7 13 12 78 13 159 1
126 3 140 24 168 13 19 31 31 45 31 32 0 167 30 202 45 89 39 104 45 113 45 5
0 12 7 16 15 3 8 11 15 17 15 17 0 117 76 157 119 49 53 130 177 137 211 4 17
11 30 16 30 5 0 9 9 9 21 0 12 6 35 14 52 8 18 17 50 20 72 4 22 11 63 15 90
24 132 24 134 7 160 -35 53 -54 49 -134 -32 -108 -107 -193 -143 -343 -143
-64 0 -103 -5 -123 -15 -15 -8 -41 -15 -56 -15 -15 0 -33 -7 -40 -15 -7 -8
-20 -15 -30 -15 -10 0 -20 -7 -24 -15 -3 -8 -14 -15 -23 -15 -10 0 -30 -13
-43 -28 -14 -16 -36 -34 -49 -41 -29 -16 -44 2 -67 76 -8 29 -20 55 -25 58 -5
4 -9 13 -9 20 0 13 -64 85 -75 85 -2 0 -24 14 -48 30 -25 17 -49 30 -55 30 -5
0 -12 7 -16 15 -3 8 -15 15 -26 15 -42 0 -180 110 -180 143 0 9 -4 17 -9 17
-9 0 -51 103 -51 126 0 19 -31 54 -48 54 -7 0 -26 -14 -42 -31z m-2656 -1248
c17 -5 60 -15 96 -21 121 -20 151 -27 162 -38 7 -7 22 -12 34 -12 12 0 35 -6
51 -14 15 -8 46 -19 68 -26 52 -16 189 -80 193 -91 2 -5 12 -9 22 -9 10 0 25
-6 32 -14 8 -7 24 -17 36 -20 12 -4 22 -12 22 -17 0 -5 5 -9 11 -9 6 0 28 -13
49 -30 21 -16 43 -30 49 -30 6 0 11 -4 11 -10 0 -5 5 -10 11 -10 11 0 83 -53
104 -76 6 -6 30 -26 55 -45 61 -47 227 -216 255 -260 13 -20 37 -51 54 -70 17
-18 31 -37 31 -41 0 -4 14 -22 30 -40 17 -18 30 -37 30 -43 0 -6 11 -22 25
-37 14 -15 25 -30 25 -32 0 -3 20 -32 45 -65 25 -32 45 -64 45 -69 0 -6 14
-26 30 -44 17 -18 30 -38 30 -44 0 -7 3 -14 8 -16 10 -5 72 -97 72 -108 0 -6
4 -10 8 -10 8 0 82 -95 82 -105 0 -2 16 -21 35 -41 20 -20 52 -57 73 -82 68
-84 192 -199 315 -291 59 -45 75 -82 41 -95 -24 -9 -233 -6 -284 4 -25 5 -69
14 -98 19 -59 11 -132 40 -132 53 0 4 -7 8 -15 8 -16 0 -106 59 -118 78 -4 6
-13 12 -19 12 -6 0 -21 11 -34 25 -13 14 -27 25 -31 25 -5 0 -22 12 -39 27
-17 16 -38 33 -47 38 -74 48 -159 109 -188 134 -18 17 -41 31 -50 31 -9 0 -22
7 -29 15 -7 8 -17 15 -22 15 -5 0 -24 11 -41 24 -67 49 -158 76 -206 61 -18
-5 -21 -14 -21 -55 0 -27 5 -52 10 -55 6 -3 10 -15 10 -25 0 -21 44 -114 72
-149 38 -49 10 -112 -67 -151 -49 -25 -187 -28 -242 -5 -19 8 -43 15 -53 15
-20 0 -122 52 -167 86 -17 13 -37 24 -43 24 -6 0 -13 7 -16 15 -4 8 -11 15
-16 15 -39 0 -385 337 -421 409 -10 20 -22 40 -68 111 -47 72 -129 227 -129
244 0 8 -7 19 -15 26 -8 7 -15 21 -15 31 0 11 -4 19 -9 19 -5 0 -12 18 -16 41
-4 22 -13 53 -21 67 -8 15 -14 35 -14 45 0 9 -4 25 -9 35 -9 16 -18 45 -52
177 -12 48 -22 135 -35 311 l-6 80 36 37 c26 27 44 37 68 38 18 0 42 4 53 9
27 12 261 12 299 1z m2052 -146 c16 -8 37 -15 47 -15 9 0 17 -4 17 -10 0 -5 5
-10 10 -10 38 0 279 -237 299 -294 2 -6 17 -27 32 -47 16 -20 29 -44 29 -53 0
-9 4 -16 10 -16 5 0 13 -12 16 -27 4 -16 18 -45 31 -65 27 -45 29 -65 5 -95
-49 -63 -220 -106 -276 -69 -14 9 -30 16 -37 16 -23 0 -139 98 -139 118 0 7
-7 20 -15 28 -12 12 -15 42 -15 134 0 91 -4 125 -16 147 -20 34 -73 63 -118
63 -65 0 -145 49 -146 90 0 22 59 83 100 102 44 21 129 23 166 3z m-102 -270
c27 -25 29 -32 27 -75 -4 -49 -64 -75 -112 -49 -12 6 -26 24 -34 41 -10 26
-10 35 4 59 9 16 22 29 29 29 6 0 12 5 12 10 0 19 47 10 74 -15z"/>
</g>
</svg>
